<?xml version="1.0" standalone="no"?><!DOCTYPE svg PUBLIC "-//W3C//DTD SVG 1.1//EN" "http://www.w3.org/Graphics/SVG/1.1/DTD/svg11.dtd"><svg t="1591283128622" class="icon" viewBox="0 0 1260 1024" version="1.1" xmlns="http://www.w3.org/2000/svg" p-id="3947" xmlns:xlink="http://www.w3.org/1999/xlink" width="246.09375" height="200"><defs><style type="text/css"></style></defs><path d="M1260.307692 248.884513c0 137.426051-111.432205 248.884513-248.884513 248.884513-137.426051 0-248.858256-111.458462-248.858256-248.91077a248.910769 248.910769 0 0 1 497.742769 0" fill="#6CB6FF" p-id="3948"></path><path d="M630.153846 37.809231c-189.492513 0-345.324308 129.339077-365.226667 295.384615a50.254769 50.254769 0 0 1-32.820512 41.380103C96.492308 423.463385 0 543.140103 0 682.35159 0 864.62359 165.415385 1013.76 367.589744 1013.76h525.128205c202.174359 0 367.589744-149.13641 367.589743-331.40841 0-139.185231-96.492308-258.888205-232.106666-307.777641a50.254769 50.254769 0 0 1-32.820513-41.353846C975.478154 167.148308 819.646359 37.809231 630.153846 37.809231m0 78.769231c148.191179 0 271.570051 97.148718 287.035077 226.015179a128.288821 128.288821 0 0 0 84.309333 106.075897c109.384205 39.384615 180.040205 131.177026 180.040206 233.682052 0 139.316513-129.575385 252.639179-288.820513 252.639179H367.589744c-159.245128 0-288.820513-113.322667-288.820513-252.639179 0-102.505026 70.682256-194.297436 180.040205-233.682052a128.288821 128.288821 0 0 0 84.309333-106.075897C358.583795 213.727179 481.962667 116.578462 630.153846 116.578462" fill="#0080FF" p-id="3949"></path><path d="M630.153846 724.939487c-114.714256 0-208.055795-93.341538-208.055795-208.055795a39.384615 39.384615 0 0 1 78.769231 0A129.444103 129.444103 0 0 0 630.153846 646.170256a129.444103 129.444103 0 0 0 129.286564-129.286564 39.384615 39.384615 0 0 1 78.769231 0c0 114.714256-93.341538 208.055795-208.055795 208.055795" fill="#0080FF" p-id="3950"></path></svg>