<?xml version="1.0" standalone="no"?><!DOCTYPE svg PUBLIC "-//W3C//DTD SVG 1.1//EN" "http://www.w3.org/Graphics/SVG/1.1/DTD/svg11.dtd"><svg class="icon" width="200px" height="200.00px" viewBox="0 0 1024 1024" version="1.1" xmlns="http://www.w3.org/2000/svg"><path fill="#333333" d="M835.456 393.045333c53.12 0 91.904 44.117333 92.288 98.304v196.394667c0 185.856-25.386667 336.256-295.850667 336.256-118.485333 0-174.506667-24.192-223.488-65.408a92.416 92.416 0 0 1-17.92-14.506667L122.666667 669.696c-45.568-47.018667-24.704-113.194667 7.125333-146.090667 31.786667-32.896 98.261333-38.314667 135.594667 0l58.282666 59.989334v-381.44c0-54.314667 43.008-98.432 96-98.432 52.693333 0 92.672 44.117333 92.672 98.389333V301.226667a94.592 94.592 0 0 1 45.226667-11.605334c42.154667 0 75.093333 27.904 87.765333 66.474667 15.274667-9.685333 33.109333-14.890667 51.2-14.805333 42.197333 0 75.093333 27.818667 87.765334 66.517333 14.634667-9.386667 29.909333-14.805333 48.64-14.805333l2.56 0.085333z m41.514667 294.570667c0-41.6 0-190.165333 0.810666-189.781333 0-48.384-44.117333-46.592-44.117333-46.592-25.002667 0-43.690667 20.992-43.690667 46.592v102.4h-0.426666c0.341333 1.408 0.341333 3.285333 0.341333 5.12 0 14.08-10.410667 25.6-24.618667 25.6a25.344 25.344 0 0 1-25.386666-25.514667v-0.085333c0-1.493333 0-3.328 0.298666-5.12h-0.298666v-150.058667c0-43.818667-45.610667-46.72-45.610667-46.72-25.002667 0-42.965333 20.992-42.965333 46.72v118.869333h-0.341334a27.434667 27.434667 0 0 1 0.341334 5.12c0 14.08-11.221333 25.685333-25.429334 25.685334a25.344 25.344 0 0 1-25.386666-25.514667v-0.085333c0-1.493333 0-3.285333 0.426666-5.12h-0.341333v-170.666667c0-47.36-44.501333-46.592-44.501333-46.592-24.96 0-43.264 20.992-43.264 46.592v129.066667h-0.426667c0.426667 1.536 0.426667 3.328 0.426667 5.12 0 14.08-11.221333 25.685333-25.429334 25.685333a25.472 25.472 0 0 1-25.386666-25.472v-0.128c0-1.493333 0-3.285333 0.298666-5.12h-0.298666v-315.306667c0-25.344-17.194667-46.336-42.197334-46.336s-45.568 20.608-45.568 46.293334v495.658666s-25.429333-26.410667-54.528-56.106666l-82.858666-84.992c-17.92-18.090667-51.626667-17.28-69.888 1.536-18.346667 18.773333-23.893333 48.469333-1.536 71.594666l254.08 259.968c47.104 48.085333 109.098667 71.978667 212.608 71.978667 244.053333 0 244.864-127.274667 244.864-284.288zM285.866667 348.16a202.538667 202.538667 0 0 1-62.72-147.2c0-110.933333 87.04-200.96 194.730666-200.96s195.072 90.112 195.072 200.96c0 18.517333-2.986667 36.522667-7.509333 53.504a67.413333 67.413333 0 0 0-46.677333-20.992c2.56-10.496 3.669333-21.290667 3.669333-32.597333 0-82.090667-64.682667-148.992-144.554667-148.992-79.914667 0-144.597333 66.602667-144.597333 148.992 0 21.333333 4.906667 41.984 12.714667 60.416L285.866667 348.16z" /></svg>