<?xml version="1.0" standalone="no"?><!DOCTYPE svg PUBLIC "-//W3C//DTD SVG 1.1//EN" "http://www.w3.org/Graphics/SVG/1.1/DTD/svg11.dtd"><svg class="icon" width="200px" height="200.00px" viewBox="0 0 1024 1024" version="1.1" xmlns="http://www.w3.org/2000/svg"><path d="M514.29 303.04L310.08 413.7l34.3 190.48 169.91 108.27V303.04z" fill="#FFE100" /><path d="M508.65 900.58L187.27 695.82 120.52 325.2l395.81-214.51 387.15 214.6-65.63 364.41-27.88-5 62.04-344.47L516.18 143 152.03 340.33l60.92 338.25 310.91 198.11-15.21 23.89z"  /><path d="M514.4 729.3L331.54 612.81l-37.22-206.67 220.05-119.25 215.31 119.35-37.19 206.46zM357.22 595.58l157 100 152.59-99.89 31.39-174.51-184-102-188.37 102.09z"  /><path d="M500.13 303.04h28.32v409.4h-28.32zM893.51 838.31H571.42v28.32h237.27l-48.7 20.59 11.02 26.09 122.5-51.78v-23.22zM893.51 755.63H651.73l49.18-20.56-10.93-26.14-118.56 49.58v25.45h322.09v-28.33z"  /></svg>