<?xml version="1.0" standalone="no"?><!DOCTYPE svg PUBLIC "-//W3C//DTD SVG 1.1//EN" "http://www.w3.org/Graphics/SVG/1.1/DTD/svg11.dtd"><svg class="icon" width="200px" height="200.00px" viewBox="0 0 1024 1024" version="1.1" xmlns="http://www.w3.org/2000/svg"><path fill="#333333" d="M119.198077 17.076349v716.416066a19.922407 19.922407 0 0 0 6.482688 15.811434l379.474412 273.063462a10.119318 10.119318 0 0 0 6.482688 1.581144 10.435546 10.435546 0 0 0 6.640802-1.581144l379.474412-273.063462a19.448064 19.448064 0 0 0 6.640802-15.811434V17.076349C903.919538 6.798917 898.701765 0 890.796048 0H132.321567C124.41585 0 119.198077 6.798917 119.198077 17.076349z m26.088866 706.138634V34.152697H878.146901v689.062286L511.47975 986.001014 145.286943 723.214983zM818.854024 687.481143L767.466864 724.954241a9.644975 9.644975 0 0 1-6.640802 1.739258 15.811434 15.811434 0 0 1-11.700461-6.798917A20.238635 20.238635 0 0 1 754.817717 695.703088l44.272015-31.622867v-67.04048c0-10.277432 5.217773-17.076349 13.12349-17.076348s13.12349 6.798917 13.12349 17.076348v76.843569a15.811434 15.811434 0 0 1-6.482688 13.597833zM812.371336 499.799423c-7.905717 0-13.12349-8.538174-13.12349-17.076348V310.53656c0-10.277432 5.217773-17.076349 13.12349-17.076348s13.12349 6.798917 13.12349 17.076348v172.186515c0 10.277432-5.375888 17.076349-13.12349 17.076348zM812.371336 213.296242c-7.905717 0-13.12349-6.957031-13.12349-17.076348V136.452674h-45.695044c-7.905717 0-13.12349-6.798917-13.12349-17.076349s5.217773-17.076349 13.12349-17.076348h58.818534c7.747603 0 13.12349 6.798917 13.12349 17.076348v76.843569c0 10.119318-5.375888 17.076349-13.12349 17.076348zM672.598261 136.452674h-120.483126c-7.905717 0-13.12349-6.798917-13.12349-17.076349s5.217773-17.076349 13.12349-17.076348H672.598261c7.747603 0 13.12349 6.798917 13.12349 17.076348s-5.534002 17.076349-13.12349 17.076349zM471.00248 136.452674h-120.325012c-7.905717 0-13.12349-6.798917-13.12349-17.076349s5.217773-17.076349 13.12349-17.076348h120.325012c7.905717 0 13.12349 6.798917 13.12349 17.076348s-5.217773 17.076349-13.12349 17.076349zM269.564813 136.452674H223.869769v59.76722c0 10.119318-5.217773 17.076349-13.12349 17.076348S198.255246 206.339211 198.255246 196.219894V119.376325c0-10.277432 5.217773-17.076349 13.12349-17.076348h58.186077c7.905717 0 13.12349 6.798917 13.12349 17.076348S277.312415 136.452674 269.564813 136.452674zM210.746279 293.460212c7.905717 0 13.12349 6.798917 13.12349 17.076348v172.186515c0 10.277432-5.217773 17.076349-13.12349 17.076348S198.255246 491.261249 198.255246 482.723075V310.53656c0-10.119318 4.585316-17.076349 12.491033-17.076348zM210.746279 579.963393c7.905717 0 13.12349 6.798917 13.12349 17.076348v64.826879l44.430129 31.622868a20.238635 20.238635 0 0 1 5.217773 23.875265A13.597833 13.597833 0 0 1 261.500981 727.325956h-6.324573l-50.912817-38.105555a19.606178 19.606178 0 0 1-6.640802-15.811434v-76.369226c0.632457-10.277432 5.217773-17.076349 13.12349-17.076348zM414.713775 820.455301a13.12349 13.12349 0 0 1-11.700461 8.538175 48.699216 48.699216 0 0 0-6.482688-1.581144l-85.065514-61.506477a20.238635 20.238635 0 0 1-5.217773-23.875265c3.952858-8.538174 11.700461-11.858575 18.341263-6.798917l84.9074 61.348363a20.080521 20.080521 0 0 1 5.217773 23.875265zM574.251143 842.749423a20.080521 20.080521 0 0 1-5.217774 23.875265l-50.912817 37.473098a9.644975 9.644975 0 0 1-6.640802 1.739258 9.48686 9.48686 0 0 1-6.482688-1.739258l-52.335846-35.73384a20.554864 20.554864 0 0 1-5.217773-24.03338c3.952858-8.38006 11.858575-11.858575 18.341263-6.798916L511.47975 869.628861l44.588244-33.994583c5.850231-4.901544 14.388405-1.423029 18.183149 7.115145zM711.652502 765.905855l-85.065514 61.506477a9.644975 9.644975 0 0 1-6.482687 1.581144 13.12349 13.12349 0 0 1-11.700461-8.538175 20.080521 20.080521 0 0 1 5.217773-23.875265l84.907399-61.348363c6.640802-5.059659 14.388405-1.739258 18.341264 6.798917a20.238635 20.238635 0 0 1-5.217774 23.875265zM297.392936 332.830682m4.901545 0l355.441032 0q4.901544 0 4.901545 4.901545l0 16.285776q0 4.901544-4.901545 4.901545l-355.441032 0q-4.901544 0-4.901545-4.901545l0-16.285776q0-4.901544 4.901545-4.901545ZM319.528944 407.618764m4.901544 0l355.441032 0q4.901544 0 4.901545 4.901545l0 16.285776q0 4.901544-4.901545 4.901545l-355.441032 0q-4.901544 0-4.901544-4.901545l0-16.285776q0-4.901544 4.901544-4.901545ZM338.660778 473.710557m4.901545 0l354.808575 0q4.901544 0 4.901545 4.901545l0 16.285777q0 4.901544-4.901545 4.901544l-354.808575 0q-4.901544 0-4.901545-4.901544l0-16.285777q0-4.901544 4.901545-4.901545ZM360.638671 549.447326m13.123491 0l338.839027 0q13.12349 0 13.12349 13.12349l0-0.158115q0 13.12349-13.12349 13.12349l-338.839027 0q-13.12349 0-13.123491-13.12349l0 0.158115q0-13.12349 13.123491-13.12349ZM470.801353 256.831328m4.699455-1.392934l15.614316-4.628136q4.699455-1.392934 6.092389 3.30652l115.209128 388.69037q1.392934 4.699455-3.30652 6.092388l-15.614317 4.628136q-4.699455 1.392934-6.092388-3.30652l-115.209129-388.69037q-1.392934-4.699455 3.306521-6.092388ZM538.979048 256.868206m4.699455-1.392934l15.614316-4.628135q4.699455-1.392934 6.092389 3.30652l115.209128 388.690369q1.392934 4.699455-3.30652 6.092389l-15.614317 4.628136q-4.699455 1.392934-6.092388-3.306521l-115.209129-388.690369q-1.392934-4.699455 3.306521-6.092389ZM402.816043 257.062289m4.699455-1.392934l15.614317-4.628135q4.699455-1.392934 6.092388 3.30652l114.714862 387.022821q1.392934 4.699455-3.306521 6.092389l-15.614317 4.628135q-4.699455 1.392934-6.092388-3.30652l-114.714861-387.022821q-1.392934-4.699455 3.30652-6.092389ZM328.319172 256.68546m4.699454-1.392934l15.614317-4.628136q4.699455-1.392934 6.092388 3.30652l115.298995 388.99356q1.392934 4.699455-3.30652 6.092389l-15.614317 4.628136q-4.699455 1.392934-6.092388-3.306521l-115.298995-388.99356q-1.392934-4.699455 3.30652-6.092388Z" /></svg>